<svg xmlns="http://www.w3.org/2000/svg" viewBox="0 0 500 500"><g id="freepik--background-simple--inject-117"><path d="M265,78.55l0,0C249,67.89,224.76,67.3,208,73.36c-30,10.84-26,35-52,52s-51,11-76,33.06-27.26,63.81-17,83.34,22,33.86,12,67.47-9,72.65,31,93.2,71-23.26,97-14.25,75,48.9,129,37,30-52.84,65-64.49,55-51.87,43-94.34S398,215.71,405,189c5.28-20.17,12.36-39.58-1.1-59C386.53,104.94,356.8,94.19,328,96.73c-10.73,1-23,1.33-34.21-1.27C281.05,92.48,275.16,85.33,265,78.55Z" style="fill:#FFFFFF"></path><path d="M265,78.55l0,0C249,67.89,224.76,67.3,208,73.36c-30,10.84-26,35-52,52s-51,11-76,33.06-27.26,63.81-17,83.34,22,33.86,12,67.47-9,72.65,31,93.2,71-23.26,97-14.25,75,48.9,129,37,30-52.84,65-64.49,55-51.87,43-94.34S398,215.71,405,189c5.28-20.17,12.36-39.58-1.1-59C386.53,104.94,356.8,94.19,328,96.73c-10.73,1-23,1.33-34.21-1.27C281.05,92.48,275.16,85.33,265,78.55Z" style="fill:#fff;opacity:0.7000000000000001"></path><path d="M419.69,227.42,251.52,267.25l-.16-.11,153.25-76.4c.12-.58.23-1.16.39-1.76,2.45-9.37,5.29-18.58,6.28-27.7L251.45,266.37l-.18,0L392.74,117.25a77.78,77.78,0,0,0-21.06-13.61L251.09,265.57l-.19,0L324.19,97a119.14,119.14,0,0,1-23.32-.34L250.48,264.94l-.18.09L261.83,76.62a60,60,0,0,0-23.46-6.8l11.31,194.74-.13.14L194.92,80.27c-7.72,5.77-12.07,13-16.72,20.46l70.61,163.75-.08.17-100-135.11a108.11,108.11,0,0,1-21,7.74L248,264.69v.2L83.14,155.8c-1,.83-2.09,1.69-3.14,2.61a61.12,61.12,0,0,0-12.92,16.27l180.15,90.51.06.18L57.47,219.8C58.06,228.33,60,236,63,241.75c.5,1,1,1.9,1.51,2.83L246.72,265.9l.11.16-168,19.14a78.74,78.74,0,0,1-3.23,22l170.92-40.48.16.11L70.57,354.64A63,63,0,0,0,78.76,378L246.55,267.63l.18,0L115.33,406.14c10.49,3,20.34,2,29.63-.81l101.95-136.9.19,0L195.56,386.93a22.86,22.86,0,0,1,7.44,1.24,83.63,83.63,0,0,1,7.87,3.26l36.65-122.37.18-.09-8.39,137.14c5.51,2.81,11.34,5.64,17.43,8.28l-8.42-144.95.13-.14L294.87,426a104.63,104.63,0,0,0,22.31,1.17l-68-157.67.08-.17,107.44,145.2c6.77-5.26,10.56-11.54,13.37-18L250,269.31v-.2l141.66,93.76a39.33,39.33,0,0,1,5.29-2.2,63.76,63.76,0,0,0,18-9.37L250.77,268.81l-.06-.18,189.52,45.49a82.13,82.13,0,0,0,3.25-23.53L251.28,268.1l-.11-.16,181.35-20.66A133.44,133.44,0,0,0,419.69,227.42Zm-173.08,39.3.58-.14-.43.22Zm.22.86-.18,0,.51-.34Zm.32.7-.16,0,.36-.48ZM247,266l-.11-.12.6.07Zm.74,2.8-.14.09.17-.58Zm-.29-3.44-.06-.15.54.27Zm2.28-.71,0,.6-.14-.46Zm-.83-.1.24.56-.29-.39Zm-.81.2.41.44-.4-.27Zm.26,4.52,0-.6.14.46Zm.83.1-.24-.56.29.39Zm-.09-1.57-.29,0-.26-.13-.2-.21-.11-.27,0-.29.08-.28.18-.23.24-.16.28-.07.29,0,.26.13.2.21.11.27,0,.29-.08.28-.18.23-.24.16Zm.49.93.4.27v.17Zm1.63-2.35.18,0-.51.34Zm-.32-.7.16,0-.36.48Zm-.55-.56.14-.09-.17.57Zm-.19,3.32.48.12.06.15Zm.44-.47L251,268l.11.12Zm.26-.59.43-.22.15.08Z" style="fill:#fff"></path></g><g id="freepik--Shadow--inject-117"><ellipse cx="247" cy="425.06" rx="156.5" ry="8.06" style="fill:#263238"></ellipse></g><g id="freepik--Device--inject-117"><path d="M154.84,282.15H348.15a4.29,4.29,0,0,1,4.29,4.29v124.1a0,0,0,0,1,0,0H150.54a0,0,0,0,1,0,0V286.44A4.29,4.29,0,0,1,154.84,282.15Z" style="fill:#FFFFFF;stroke:#263238;stroke-linecap:round;stroke-linejoin:round"></path><path d="M165.21,291.89H337.78a4.29,4.29,0,0,1,4.29,4.29V412.27a0,0,0,0,1,0,0H160.91a0,0,0,0,1,0,0V296.19A4.29,4.29,0,0,1,165.21,291.89Z" style="fill:#263238;stroke:#263238;stroke-linecap:round;stroke-linejoin:round"></path><path d="M350.71,420.91H143.29c-9.55,0-17.29-5.78-17.29-12.91H368C368,415.13,360.26,420.91,350.71,420.91Z" style="fill:#FFFFFF;stroke:#263238;stroke-linecap:round;stroke-linejoin:round"></path></g><g id="freepik--Shield--inject-117"><path d="M250.63,163.93c-13.32,12.67-47.39,25.47-87.12,52.62,0,0,2.48,91.74,87.12,141.89Z" style="fill:#FFFFFF;stroke:#263238;stroke-linecap:round;stroke-linejoin:round"></path><path d="M250.63,163.93c13.31,12.67,47.39,25.47,87.12,52.62,0,0-2.48,91.74-87.12,141.89Z" style="fill:#263238;stroke:#263238;stroke-linecap:round;stroke-linejoin:round"></path><path d="M250.63,171.74c-16.07,11.39-43.92,22.25-80.73,47.4,0,0,2.3,85,80.73,131.49,78.43-46.47,80.73-131.49,80.73-131.49C294.54,194,266.82,183.13,250.63,171.74Z" style="fill:#263238;stroke:#263238;stroke-linecap:round;stroke-linejoin:round"></path><path d="M317.6,210.11c-56.16,17-99,66.35-118.48,92.38a160.89,160.89,0,0,0,51.51,48.14c78.43-46.47,80.73-131.49,80.73-131.49Q324.25,214.3,317.6,210.11Z" style="fill:#FFFFFF;stroke:#263238;stroke-linecap:round;stroke-linejoin:round"></path><path d="M281.21,257.45H221a5,5,0,0,1-5-5V224.11a35.09,35.09,0,0,1,70.17,0v28.34A5,5,0,0,1,281.21,257.45Zm-55.17-10h50.17V224.11a25.09,25.09,0,0,0-50.17,0Z" style="fill:#fff;stroke:#263238;stroke-linecap:round;stroke-linejoin:round"></path><rect x="212.33" y="243.79" width="76.6" height="64.73" style="fill:#fff;stroke:#263238;stroke-linecap:round;stroke-linejoin:round"></rect><path d="M258.59,270.67a8.34,8.34,0,1,0-12.3,7.34l-1.4,14.7h10.72l-1.4-14.7A8.32,8.32,0,0,0,258.59,270.67Z" style="fill:#263238;stroke:#263238;stroke-linecap:round;stroke-linejoin:round"></path></g><g id="freepik--Icons--inject-117"><path d="M401.55,258.09l-.12-1.5" style="fill:none;stroke:#263238;stroke-linecap:round;stroke-linejoin:round"></path><path d="M401.14,253.6a155,155,0,0,0-307.4-6.89q-.64,4.26-1,8.55" style="fill:none;stroke:#263238;stroke-linecap:round;stroke-linejoin:round;stroke-dasharray:3.0079100131988525,3.0079100131988525"></path><path d="M92.56,256.74l-.12,1.49" style="fill:none;stroke:#263238;stroke-linecap:round;stroke-linejoin:round"></path><polygon points="126.99 232.03 135.85 195.98 108.97 195.98 126.99 232.03" style="fill:#263238;stroke:#263238;stroke-linecap:round;stroke-linejoin:round"></polygon><polygon points="126.99 232.03 128.96 197.35 111.85 197.35 126.99 232.03" style="fill:#FFFFFF;stroke:#263238;stroke-linecap:round;stroke-linejoin:round"></polygon><polygon points="126.99 232.03 125.16 194.65 108.05 194.65 126.99 232.03" style="fill:#FFFFFF;stroke:#263238;stroke-linecap:round;stroke-linejoin:round"></polygon><polygon points="95.05 192.92 90.64 187.93 67.42 187.93 78.31 232.03 126.99 232.03 119.27 192.92 95.05 192.92" style="fill:#263238;stroke:#263238;stroke-linecap:round;stroke-linejoin:round"></polygon><rect x="117" y="124.67" width="65.33" height="38.67" rx="3.67" style="fill:#263238;stroke:#263238;stroke-linecap:round;stroke-linejoin:round"></rect><rect x="117" y="132" width="65.33" height="14" style="fill:#FFFFFF;stroke:#263238;stroke-linecap:round;stroke-linejoin:round"></rect><path d="M168.54,157.16a2.73,2.73,0,1,0-2.73,2.73A2.73,2.73,0,0,0,168.54,157.16Z" style="fill:#fff;stroke:#263238;stroke-linecap:round;stroke-linejoin:round"></path><path d="M176.13,157.16a2.73,2.73,0,1,0-2.73,2.73A2.73,2.73,0,0,0,176.13,157.16Z" style="fill:#fff;stroke:#263238;stroke-linecap:round;stroke-linejoin:round"></path><rect x="217.11" y="98.76" width="69.96" height="45.36" style="fill:#FFFFFF;stroke:#263238;stroke-linecap:round;stroke-linejoin:round"></rect><rect x="220.52" y="101.64" width="63.38" height="39.23" style="fill:#263238;stroke:#263238;stroke-linecap:round;stroke-linejoin:round"></rect><path d="M239.06,129c0-4.28-3.48-11.64-7.76-11.64s-7.77,7.36-7.77,11.64,3.48,5.34,7.77,5.34S239.06,133.25,239.06,129Z" style="fill:#fff;stroke:#263238;stroke-linecap:round;stroke-linejoin:round"></path><circle cx="231.3" cy="113.44" r="5.34" style="fill:#fff;stroke:#263238;stroke-linecap:round;stroke-linejoin:round"></circle><line x1="246.82" y1="109.11" x2="259.75" y2="109.11" style="fill:none;stroke:#fff;stroke-linecap:round;stroke-linejoin:round;stroke-width:2px"></line><line x1="246.82" y1="114.71" x2="259.75" y2="114.71" style="fill:none;stroke:#fff;stroke-linecap:round;stroke-linejoin:round;stroke-width:2px"></line><line x1="246.82" y1="124.63" x2="276.99" y2="124.63" style="fill:none;stroke:#fff;stroke-linecap:round;stroke-linejoin:round;stroke-width:2px"></line><line x1="246.82" y1="131.96" x2="276.99" y2="131.96" style="fill:none;stroke:#fff;stroke-linecap:round;stroke-linejoin:round;stroke-width:2px"></line><rect x="324.95" y="124.67" width="63.69" height="38.74" rx="5.83" style="fill:#263238;stroke:#263238;stroke-linecap:round;stroke-linejoin:round;stroke-width:2px"></rect><path d="M359.34,143.07l29.3-14.82v-.68a2.9,2.9,0,0,0-2.9-2.9H327.86a2.91,2.91,0,0,0-2.91,2.9v.81l28.77,14.76A6.25,6.25,0,0,0,359.34,143.07Z" style="fill:#FFFFFF;stroke:#263238;stroke-linecap:round;stroke-linejoin:round;stroke-width:2px"></path><rect x="360.43" y="192.21" width="64.37" height="32.49" rx="4.05" style="fill:#263238"></rect><polyline points="360.44 216.2 360.44 233.65 370.17 222.45" style="fill:#263238"></polyline><path d="M382.88,209.05a3.34,3.34,0,1,0-3.33,3.33A3.34,3.34,0,0,0,382.88,209.05Z" style="fill:#FFFFFF"></path><path d="M397.17,209.05a3.34,3.34,0,1,0-3.33,3.33A3.34,3.34,0,0,0,397.17,209.05Z" style="fill:#FFFFFF"></path><path d="M411.47,209.05a3.34,3.34,0,1,0-3.34,3.33A3.35,3.35,0,0,0,411.47,209.05Z" style="fill:#FFFFFF"></path><path d="M126.65,273.27a1.68,1.68,0,0,0-1.33-.66H82.12l-1.66-5a1.68,1.68,0,0,0-1.59-1.14H67.93a1.68,1.68,0,0,0,0,3.35h9.73l10.55,31.65a1.67,1.67,0,0,0,1.59,1.14h.61a5.71,5.71,0,0,0-.92,3.11,5.78,5.78,0,1,0,10.63-3.11h8a5.71,5.71,0,0,0-.92,3.11,5.78,5.78,0,1,0,11.55,0,5.71,5.71,0,0,0-.92-3.11h1.29a1.68,1.68,0,1,0,0-3.35H91l-1.85-5.53h31.38a1.68,1.68,0,0,0,1.62-1.24l4.78-17.76A1.66,1.66,0,0,0,126.65,273.27ZM95.26,308.14a2.42,2.42,0,1,1,2.42-2.42A2.43,2.43,0,0,1,95.26,308.14Zm17.77,0a2.42,2.42,0,1,1,2.42-2.42A2.43,2.43,0,0,1,113,308.14Zm4.47-17.76h-6.21V276h6.21ZM101.72,276h6.21v14.41h-6.21Zm-3.35,14.41H92.16V276h6.21ZM83.24,276H88.8v14.41h-.75Zm37.61,8.48V276h2.28Z" style="fill:#263238"></path><path d="M399.15,265.17a24.17,24.17,0,1,0,24.16,24.16A24.19,24.19,0,0,0,399.15,265.17Zm0,3c2,0,4.18,2.62,5.72,7H393.43C395,270.79,397.12,268.17,399.15,268.17Zm6.59,10a47,47,0,0,1,1.21,9.63H391.34a47,47,0,0,1,1.21-9.63ZM407,290.83A45,45,0,0,1,405.34,302H393a45,45,0,0,1-1.61-11.13Zm-18.62-3H378.05a21.09,21.09,0,0,1,3.12-9.63h8.28A50.92,50.92,0,0,0,388.33,287.83Zm0,3A49.49,49.49,0,0,0,389.81,302H382.2a21,21,0,0,1-4.15-11.13ZM390.75,305a21.46,21.46,0,0,0,2.34,4.65,21.15,21.15,0,0,1-8.17-4.65Zm3.25,0h10.29c-1.47,3.5-3.36,5.54-5.14,5.54S395.48,308.46,394,305Zm13.54,0h5.83a21.15,21.15,0,0,1-8.17,4.65A21.46,21.46,0,0,0,407.54,305Zm.94-3A48.93,48.93,0,0,0,410,290.83h10.28A21,21,0,0,1,416.09,302ZM410,287.83a50.92,50.92,0,0,0-1.12-9.63h8.28a21.09,21.09,0,0,1,3.12,9.63Zm4.9-12.63h-6.81a23.22,23.22,0,0,0-2.85-6.14A21.23,21.23,0,0,1,414.86,275.2Zm-21.77-6.14a22.91,22.91,0,0,0-2.84,6.14h-6.82A21.23,21.23,0,0,1,393.09,269.06Z" style="fill:#263238"></path></g></svg>